<svg width="128" height="128" viewBox="0 0 128 128" fill="none" xmlns="http://www.w3.org/2000/svg">
<path d="M28 0H100C118.667 0 128 9.33333 128 28V100C128 118.667 118.667 128 100 128H28C9.33333 128 0 118.667 0 100V28C0 9.33333 9.33333 0 28 0Z" fill="white"/>
<path d="M64.0547 11C92.5043 10.9946 116.969 33.9003 117 63.9614C117.031 94.2019 92.1204 117.693 62.6979 116.984C34.0841 116.295 10.9009 92.787 11.0003 63.9636C11.103 34.5672 34.7976 10.9708 64.0547 11ZM115.171 64.0868C115.181 36.0199 92.234 12.831 64.404 12.7899C35.9534 12.7489 12.8372 35.6503 12.7929 63.9084C12.7507 91.4078 34.8755 115.15 63.9661 115.166C93.1735 115.181 115.202 91.3041 115.171 64.0868Z" fill="#BD2319"/>
<path d="M63.4136 55.8225C61.7605 55.8225 60.3334 55.8182 58.9085 55.8236C57.2219 55.83 56.7256 56.2862 56.6521 57.9388C56.4521 62.4255 56.2834 66.9132 56.0672 71.3999C55.8628 75.6683 55.7882 79.9539 55.3255 84.1963C54.9979 87.2054 55.2477 86.7752 51.4355 86.6434L51.9923 85.0967C50.7803 87.374 48.6969 86.6747 46.7811 86.6909C46.8038 86.5321 46.779 86.3807 46.8428 86.3007C48.9186 83.7077 49.4808 80.6089 49.6819 77.4376C50.1684 69.7667 50.5738 62.0904 51.0301 54.4184C51.0705 53.7719 51.1789 53.1314 51.3533 52.5075C51.8236 50.8364 52.7167 50.189 54.4573 50.1717C57.2424 50.1458 57.2413 50.1458 57.4262 47.3593C57.5127 46.0677 57.6154 44.776 57.69 43.4844C57.8316 41.0503 59.2155 39.7424 61.4978 39.2269C61.7486 39.1707 61.993 39.0755 62.2373 38.9912C62.2654 38.9815 62.2773 38.9275 62.3454 38.8096C60.7226 38.3092 58.2403 39.4441 57.8132 36.663C58.9722 36.7398 60.0729 36.8943 61.1681 36.8641C62.2698 36.8338 62.9714 37.2089 63.379 38.2465C63.4915 38.5319 63.8472 38.8323 64.138 38.8929C64.3099 38.9285 64.6894 38.5448 64.7813 38.2811C65.1748 37.1484 65.9619 36.8327 67.095 36.8652C68.1491 36.8954 69.2075 36.7387 70.3568 36.6576C70.2325 37.6283 69.7524 38.4151 68.627 38.5783C67.7145 38.7113 66.7803 38.6897 65.6051 38.7491C65.936 38.961 66.0257 39.0485 66.1316 39.082C69.7459 40.2223 70.3384 40.9584 70.6249 44.7371C70.7341 46.1574 70.8639 47.5809 70.8736 49.0033C70.8812 50.0085 71.3234 50.2863 72.2294 50.1814C72.6564 50.1328 73.0932 50.1717 73.5257 50.1739C75.5863 50.1825 76.6448 50.9045 76.8794 52.9679C77.2621 56.3521 77.4373 59.7622 77.6622 63.1637C78.0146 68.5064 78.299 73.8535 78.6882 79.193C78.8828 81.8659 79.7239 84.3476 81.6484 86.7115C79.5304 86.598 77.4276 87.5048 76.1734 85.0502L76.7053 86.6001C76.6037 86.6499 76.5669 86.6823 76.5302 86.6823C73.0878 86.6769 73.1559 87.4832 72.7234 83.5834C72.3526 80.2414 72.3677 76.8583 72.2153 73.4936C71.9807 68.3173 71.7515 63.1399 71.5136 57.9637C71.438 56.3067 70.9385 55.8365 69.2746 55.8279C67.815 55.8214 66.3565 55.8268 64.7532 55.8268C64.7532 52.301 64.737 48.8995 64.7845 45.4991C64.7888 45.2408 65.2116 44.9392 65.4981 44.7436C66.6506 43.9567 67.1566 42.7116 66.7717 41.4945C66.4073 40.3456 65.1986 39.4722 64.0169 39.5025C62.8795 39.5317 61.7324 40.3996 61.3908 41.4891C61.0081 42.7083 61.5205 43.9838 62.6536 44.7414C62.9433 44.9349 63.3769 45.23 63.3801 45.484C63.4298 48.8822 63.4136 52.2848 63.4136 55.8225Z" fill="#BD2319"/>
<path d="M63.1333 81.5471C65.2038 81.746 65.2059 81.746 65.2059 79.9074C65.2081 73.2979 65.2059 66.6884 65.2092 60.0778C65.2102 59.5169 65.2286 58.9548 65.2675 58.3949C65.3454 57.2557 65.9119 56.5402 67.0915 56.4159C68.2959 56.2883 69.3824 56.6558 69.6105 57.9021C69.8949 59.4553 69.9089 61.0657 69.9576 62.6535C70.1219 68.046 70.2603 73.4395 70.3836 78.833C70.4002 79.6524 70.3409 80.4716 70.2063 81.2801C69.6246 84.7875 67.3217 86.7558 64.008 86.6293C60.4564 86.4931 58.1027 84.3044 58.0303 80.6294C57.9416 76.0584 58.1406 71.481 58.2173 66.9068C58.2584 64.4467 58.2865 61.9845 58.3514 59.5244C58.4076 57.3735 59.3007 56.3305 60.9645 56.4007C62.0435 56.4461 62.7906 56.9206 62.9582 58.0436C63.0598 58.7224 63.1247 59.4142 63.1269 60.1005C63.1388 66.7533 63.1344 73.4071 63.1344 80.0587L63.1333 81.5471Z" fill="#BD2319"/>
<path d="M47.9055 93.3631L47.3509 94.4342C38.1103 90.0881 27.556 77.4192 29.288 60.5177C31.0222 43.6076 44.6534 30.3778 61.2729 29.204C78.3141 28.001 93.5886 38.908 97.803 55.4323C101.971 71.7814 93.7476 87.5545 80.8364 94.4429L80.2158 93.2853C90.9333 86.6942 97.0126 77.2755 97.3835 64.6791C97.6711 54.8983 93.9692 46.5638 86.9276 39.7467C73.2056 26.4607 50.8322 27.8053 38.3524 42.6186C25.451 57.9334 28.6285 82.3491 47.9055 93.3631ZM23.6455 45.6202C22.8076 42.2468 24.0596 39.3457 26.5235 36.8987C27.9896 35.4416 30.5887 35.5314 31.4709 36.6392C31.1173 38.1708 30.9033 39.51 30.4805 40.7811C30.2416 41.4999 29.7973 42.4565 29.2048 42.6856C28.1366 43.0996 27.8641 43.7578 27.7863 44.7198C27.7485 45.1878 27.6522 45.6493 27.582 46.1152L27.1873 46.2633C27.0468 45.8871 26.9127 45.5088 26.7635 45.1359C26.6046 44.7371 26.5019 44.2885 26.2457 43.9643C25.9905 43.6422 25.5743 43.4465 25.2294 43.1947L26.8089 42.5137L25.7051 40.2958C23.453 42.9969 24.2596 46.5357 27.5712 48.1829C26.8911 48.5093 26.4554 48.9028 26.0424 48.879C25.1937 48.8314 24.2877 48.7028 23.5363 48.3396C22.9233 48.0435 22.4973 47.356 21.9892 46.8426L23.6455 45.6202ZM29.4156 36.7798C27.2901 37.2553 26.5084 38.5048 25.7418 40.0861C28.0782 39.6884 27.0111 41.5291 27.4436 42.3592C30.1821 41.234 28.795 38.8831 29.4156 36.7798ZM28.1615 87.7901L26.9765 85.8759L24.4034 87.8745L22.9698 85.5841C25.1948 84.9226 26.9625 83.6645 28.6956 82.107L30.1735 84.4265L27.369 85.5344C27.8393 86.2813 28.1669 86.8066 28.6112 87.5135C29.4156 86.852 30.1194 86.2737 30.9108 85.6209L32.4937 88.1414C31.0676 87.9599 27.1852 90.4502 26.8911 91.8521L25.2251 89.1953L28.1615 87.7901ZM91.1625 93.0961C92.0761 92.0185 92.8491 91.0954 93.6351 90.1854C94.313 89.4006 95.1779 88.6322 96.1791 89.1802C96.8116 89.526 97.0991 90.502 97.5413 91.1949L97.2386 91.5181L101.093 92.1266C100.182 92.7286 99.5209 93.4582 98.7565 93.5901C97.9349 93.7317 97.0181 93.3091 96.1423 93.1329L95.9661 93.5079L98.3576 94.9909L96.4267 97.2942C95.9996 95.8005 92.5832 92.9902 91.1625 93.0961ZM93.2881 91.17L95.4623 92.9491C96.2191 92.0888 95.8104 91.5462 95.2698 91.0565C94.7022 90.542 94.0957 90.3356 93.2881 91.17ZM89.2846 103.033C89.4456 101.576 86.5914 98.0087 85.0616 97.799L89.5246 94.19L90.5311 95.3714C89.197 94.7996 88.385 95.4578 87.5915 96.4511L89.157 98.3027L89.5267 98.2248L89.6078 96.5084C90.1192 97.1342 90.6252 97.7557 91.2706 98.5491H89.677L89.4608 98.9447C90.1365 99.5024 90.9074 100.604 91.4674 100.505C92.6891 100.291 93.0394 99.0971 92.9107 97.8033L93.7865 99.3814L89.2846 103.033ZM50.2668 101.239L51.3328 101.719C49.4656 103.242 49.3229 105.726 47.7736 107.682C46.5768 105.527 46.5497 103.148 45.6037 100.796C44.8826 102.449 43.729 103.716 43.8512 105.602L42.41 104.993C43.7009 104.356 45.5864 100.272 45.1551 98.9706C46.6049 99.39 47.8233 99.8494 48.005 101.608C48.1034 102.565 48.472 103.492 48.7196 104.433L49.0753 104.494L50.2668 101.239ZM66.1695 105.407L67.0657 110.229L66.1868 110.332C66.336 108.032 66.0376 105.886 65.2505 103.78C66.55 103.294 67.8107 103.322 68.8648 104.682C69.4021 105.376 70.1665 105.893 70.8282 106.489L71.1558 106.354L70.4541 103.021L71.6109 102.819C70.72 105.096 72.1018 107.23 71.8477 109.553C70.4671 109.506 69.9319 108.252 69.0421 107.571C68.1328 106.875 67.3306 106.041 66.4819 105.266L66.1695 105.407ZM101.051 88.9737C101.885 88.4916 102.785 88.0917 103.516 87.4864C103.77 87.2757 103.611 86.5634 103.64 86.0791C103.17 86.077 102.655 85.9505 102.243 86.1029C101.735 86.2921 101.317 86.7147 100.856 87.0336C99.6626 87.8604 98.6992 87.8842 97.9381 87.1114C97.2224 86.3839 97.2083 85.035 97.9457 84.0158C98.3738 83.4256 98.856 82.8744 99.3512 82.2594L100.455 82.8798C99.7631 83.2808 98.9836 83.6007 98.3998 84.1347C98.1489 84.3649 98.3035 85.0394 98.2733 85.5106C98.7014 85.4814 99.1728 85.5549 99.5425 85.395C100.004 85.1939 100.377 84.794 100.797 84.4913C101.759 83.7931 102.754 83.5791 103.749 84.4016C104.559 85.0685 104.682 86.3785 104.042 87.4821C103.829 87.8518 103.513 88.1587 103.261 88.5068C102.984 88.8894 102.727 89.2882 102.417 89.7454L101.051 88.9737ZM17.8732 62.6092H19.1911C18.7976 63.4426 18.2894 64.3256 17.9889 65.2735C17.9035 65.5427 18.3532 66.1415 18.697 66.3242C18.8873 66.4247 19.4895 66.055 19.6928 65.7535C20.0982 65.1525 20.3653 64.4575 20.6712 63.7928C21.1091 62.8427 21.841 62.4233 22.8649 62.6146C23.9006 62.807 24.4423 63.5344 24.4758 64.5267C24.5072 65.4832 24.3547 66.4452 24.278 67.4677H22.9525C23.3276 66.8289 23.8541 66.1577 24.1061 65.3957C24.2077 65.0866 23.7114 64.5796 23.4866 64.1635C23.1536 64.3743 22.7179 64.5148 22.5114 64.8142C22.1989 65.2649 22.0594 65.8324 21.8216 66.3404C21.2378 67.5888 20.3144 68.1087 19.1252 67.7779C17.9402 67.4483 17.5305 66.5111 17.564 65.3892C17.5921 64.5061 17.7554 63.6274 17.8732 62.6092ZM35.8809 91.7386C35.3306 92.0099 34.7716 92.1698 34.3597 92.5103C33.4634 93.2507 32.5769 94.0257 31.8244 94.9044C31.5422 95.2352 31.4114 96.0501 31.6244 96.3603C31.9033 96.7667 32.5953 97.104 33.1023 97.0932C34.1911 97.0705 36.8756 94.1954 37.0442 92.987L38.1243 94.1381C37.5556 94.4418 36.9891 94.6601 36.5253 95.0136C35.9101 95.4827 35.3857 96.0663 34.8062 96.5808C33.2051 98.0033 31.8579 97.8498 30.5876 96.1085C29.7454 94.9541 29.7789 94.0181 30.7779 92.9859C31.4666 92.2736 32.2515 91.6532 32.9272 90.929C33.2721 90.5583 33.4699 90.0502 33.791 89.5098L35.8809 91.7386ZM100.387 42.5029L103.177 45.431L103.602 45.4742C102.815 44.1729 103.636 44.0367 104.382 43.7611C105.149 43.4768 105.875 43.078 106.681 42.6997C106.854 44.0302 105.622 43.7989 104.947 44.2993L106.122 45.1867L103.641 45.9714C104.224 46.219 104.565 46.4913 104.891 46.474C105.451 46.4438 105.995 46.2006 106.555 46.1033C107.77 45.8915 108.991 45.7153 110.402 45.7488L108.637 47.1301L107.763 46.6556L107.811 46.9626L104.832 47.4014C104.925 48.0694 106.211 49.187 104.406 49.9328L103.571 48.4596L104.881 48.5363C104.357 47.7603 104.041 47.0685 103.529 46.5854C102.596 45.7045 101.569 44.9187 100.538 44.1491C99.628 43.4692 99.5739 43.1007 100.387 42.5029ZM76.4491 29.0937C76.4902 27.9156 76.0599 27.2552 77.673 27.3081C78.8395 27.346 80.0558 25.8954 81.2105 25.1345C80.3369 24.5595 79.6763 24.2114 79.1444 23.7207C78.9887 23.577 79.1195 22.9857 79.2871 22.6971C79.3541 22.5815 79.9185 22.6377 80.1801 22.7685C81.9305 23.6429 82.5846 23.4332 83.4139 21.653C83.5047 21.4596 83.4982 21.198 83.629 21.0499C83.8788 20.7689 84.1956 20.5484 84.4853 20.303C84.5372 20.7624 84.7751 21.3126 84.601 21.6595C84.3145 22.2324 83.7663 22.6734 83.3231 23.1749C84.1718 23.8731 85.5373 22.7123 85.973 24.3747C85.1124 24.3747 84.3058 24.2633 83.549 24.4103C82.9511 24.526 82.2062 24.8156 81.8884 25.2772C80.5845 27.1752 78.4903 27.7956 76.4491 29.0937ZM57.2899 103.16L59.9615 103.426C58.9733 105.129 59.2176 107.03 59.1776 108.865C59.1711 109.175 59.8361 109.735 60.2188 109.76C60.6837 109.79 61.4664 109.495 61.6113 109.137C62.326 107.382 62.4081 105.535 62.0881 103.655H63.0125C62.8146 105.099 62.6081 106.527 62.4254 107.958C62.2005 109.717 61.2913 110.457 59.542 110.276C57.6586 110.082 56.9375 109.187 57.0899 107.365C57.2045 105.997 57.224 104.621 57.2899 103.16ZM35.8171 100.731L35.0409 100.167L41.6013 96.1517C41.5883 98.976 40.3299 101.257 40.1158 103.857L37.9308 102.28C38.2497 101.637 38.8141 101.024 38.7125 100.554C38.6141 100.098 37.827 99.4916 37.3524 99.5003C36.8842 99.51 36.4291 100.207 35.8171 100.731ZM27.5949 80.6143L25.8273 81.1861C26.2359 80.7375 26.5224 80.5656 26.5711 80.3419C26.7008 79.7431 26.9419 79.0319 26.7311 78.5401C26.5473 78.111 25.7829 77.6419 25.3169 77.6819C24.3136 77.7694 23.2682 78.0299 22.3665 78.4752C20.7329 79.2837 20.7037 80.6262 22.1827 81.6811C22.387 81.827 22.6108 81.9448 22.7276 82.3166C22.3254 82.1243 21.8724 81.9989 21.5318 81.7308C20.3804 80.8218 19.9933 79.0719 20.5912 77.7403C21.1923 76.4011 22.9535 75.4413 24.4336 75.6455C25.9635 75.8563 27.1311 77.0853 27.3365 78.6947C27.4122 79.301 27.4987 79.9074 27.5949 80.6143ZM103.51 68.2308V65.7686L106.489 64.424L106.511 64.0857L103.708 62.9497L103.48 63.2858L103.594 61.9985C105.691 63.1918 107.536 64.8855 110.138 63.595V66.5846C107.339 64.9677 105.652 67.3693 103.51 68.2308ZM109.583 72.283L108.889 75.2878C107.151 73.7551 104.906 74.155 103.031 73.3109L102.654 73.6232L103.248 75.5515L102.041 75.2132C102.451 73.3963 102.795 71.6323 103.289 69.9115C103.375 69.6121 104.093 69.4932 104.622 69.5495L102.978 71.3015C105.45 71.6215 107.326 72.711 109.583 72.283ZM78.3249 101.172L80.4537 100.04L83.4355 102.904C83.908 101.225 83.5047 99.4224 82.5684 98.9274L83.8269 98.2508L84.3967 106.105L78.3249 101.172ZM107.612 79.341L106.514 82.2075C104.584 81.0056 102.587 80.1203 100.233 79.8609L101.304 77.0474C102.023 78.2191 106.247 79.8004 107.612 79.341ZM25.3667 72.979C24.0304 72.2235 19.6658 73.0515 18.817 74.182C18.6927 73.5487 18.5803 73.0136 18.4841 72.4754C18.3954 71.9771 18.3262 71.4766 18.2397 70.9232C19.629 71.495 23.8866 70.653 24.7526 69.5894L25.3667 72.979ZM78.5076 108.024L75.635 108.818C76.088 107.524 74.8728 103.347 73.8078 102.399L76.7042 101.55C76.7042 103.897 77.3767 105.982 78.5076 108.024Z" fill="#BD2319"/>
<path d="M60.7797 93.8581C60.291 93.1955 59.4953 92.3503 60.4986 91.8942C61.3538 91.505 62.5171 91.7936 63.5442 91.7818L63.4296 93.7651C64.2967 94.5758 64.4416 95.2005 63.6912 95.8847C62.8966 96.6089 60.5343 96.5581 59.9591 95.7604C59.278 94.8168 60.0521 94.3823 60.7797 93.8581ZM61.9917 96.503L63.1031 95.2427C62.6685 94.8903 62.276 94.4266 61.7798 94.2407C61.5873 94.1694 60.8467 94.8417 60.8975 94.98C61.0673 95.4502 61.477 95.8328 61.9917 96.503ZM61.9646 91.3462L61.0975 92.3276C61.4727 92.6324 61.8306 92.9685 62.2457 93.2063C62.2987 93.2366 62.862 92.6897 62.8112 92.5243C62.6977 92.1514 62.3495 91.8509 61.9646 91.3462ZM67.9023 94.3239C67.592 94.4526 67.2926 94.6406 66.9693 94.6979C66.1573 94.8406 65.3411 94.7725 65.0535 93.8505C64.7745 92.9577 64.9659 92.1449 65.913 91.6693C66.886 91.1808 68.3034 91.397 68.8829 92.1438C69.5478 93.0021 69.4138 94.6082 68.604 95.4989C67.7639 96.423 66.4795 96.6208 65.0611 95.9344C65.8244 95.8988 66.4903 96.0242 67.0006 95.7972C67.4764 95.5875 67.7877 95.0038 68.1705 94.5834L67.9023 94.3239ZM65.8092 92.7729C66.3498 93.3522 66.6309 93.8732 67.0342 93.9997C67.2493 94.0678 67.991 93.3912 67.9445 93.1588C67.8483 92.6745 67.3877 92.2606 67.0774 91.8185L65.8092 92.7729ZM71.7199 93.7403C72.267 92.8432 73.1373 92.8432 73.8238 93.3101C74.2411 93.5933 74.6271 94.4699 74.4822 94.8936C74.2855 95.4653 73.6411 96.0933 73.0551 96.2792C71.7675 96.6867 70.7566 96.1647 70.3576 95.1703C69.9144 94.0667 70.3393 92.6627 71.3328 91.9514C72.3124 91.251 73.4789 91.2424 74.2844 91.9298C72.0453 91.8412 71.2928 92.3665 71.7653 93.6949C71.6745 94.0656 71.4215 94.4969 71.5328 94.792C71.708 95.2578 72.1275 95.6296 72.4443 96.0414C72.7286 95.8155 73.2659 95.568 73.2486 95.367C73.1924 94.81 73.0037 94.2744 72.6983 93.8051C72.5935 93.6408 72.0583 93.7533 71.7199 93.7403ZM52.5413 29.3898C52.2029 28.8159 51.7996 28.2711 51.5358 27.6648C50.4882 25.2566 49.4892 22.8279 48.4578 20.4143C48.2567 19.9441 47.955 19.5183 47.755 19.0481C47.6209 18.7325 47.5853 18.3747 47.5053 18.0364C47.8631 17.9521 48.2815 17.7132 48.5626 17.8235C48.8956 17.9553 49.3508 18.3996 49.3357 18.6882C49.1648 22.2691 51.2461 25.0166 52.6818 28.0052C52.8581 28.3717 52.9402 28.7845 53.0656 29.1758C52.8905 29.2461 52.7153 29.3185 52.5413 29.3898ZM97.6903 46.7993C98.0665 48.6368 98.5877 48.9038 99.9056 47.9364C99.978 46.8988 97.8687 46.6967 98.8071 45.2094C99.8515 45.7131 99.8213 47.637 101.597 47.0512L101.098 45.7606C102.217 45.8774 102.606 46.5464 102.802 47.3063C102.823 47.3841 101.98 47.6857 101.334 47.9742C101.379 48.1245 101.553 48.492 101.581 48.8714C101.602 49.134 101.42 49.4107 101.329 49.682C101.085 49.588 100.659 49.5329 100.629 49.3913C100.444 48.5547 99.8732 48.733 99.3185 48.8033C99.1055 48.8303 98.8774 48.8843 98.6774 48.8357C98.1552 48.7092 97.3908 48.679 97.1973 48.3407C96.9767 47.9526 97.2665 47.2738 97.3357 46.7204L97.6903 46.7993ZM46.0414 31.4456C45.8879 31.1268 45.677 30.8209 45.5895 30.4848C45.1581 28.8289 44.8002 27.1524 44.3256 25.5095C44.1785 25.0026 43.6747 24.6081 43.4661 24.1066C43.3309 23.7823 43.4326 23.3575 43.4271 22.9781C43.7504 23.1273 44.2467 23.1943 44.3634 23.4407C44.7256 24.206 44.9559 25.0361 45.2175 25.8478C45.6381 27.1568 46.0749 28.4635 46.436 29.7898C46.569 30.2805 46.5041 30.8231 46.5301 31.343L46.0414 31.4456ZM55.2939 92.0206L57.2616 91.4229C57.8746 93.0183 56.7091 94.832 58.0692 96.2457H55.3436C56.5134 95.4589 56.5826 92.841 55.2939 92.0206ZM82.0536 27.2648C82.7012 28.0766 83.4255 28.8418 83.9467 29.7271C84.1056 29.9984 83.7077 30.5972 83.565 31.0457C83.1293 30.8912 82.4287 30.849 82.3066 30.5604C81.9044 29.6125 81.7108 28.5749 81.4362 27.5718L82.0536 27.2648ZM48.1345 27.2573C47.2977 25.7268 46.5549 24.4027 45.8608 23.0527C45.7884 22.9111 45.9679 22.4604 46.0922 22.4323C46.3873 22.3664 46.7885 22.3664 47.0263 22.522C47.7928 23.0224 48.5691 26.0489 48.1345 27.2573Z" fill="#BD2319"/>
</svg>
